<svg id="visual" viewBox="0 0 960 540" width="960" height="540" xmlns="http://www.w3.org/2000/svg" xmlns:xlink="http://www.w3.org/1999/xlink" version="1.1"><path d="M0 66L14.5 67.8C29 69.7 58 73.3 87.2 76.8C116.3 80.3 145.7 83.7 174.8 78.2C204 72.7 233 58.3 262 51.2C291 44 320 44 349 49.5C378 55 407 66 436.2 68.7C465.3 71.3 494.7 65.7 523.8 63.8C553 62 582 64 611 72.2C640 80.3 669 94.7 698 94.7C727 94.7 756 80.3 785.2 75.8C814.3 71.3 843.7 76.7 872.8 73C902 69.3 931 56.7 945.5 50.3L960 44L960 0L945.5 0C931 0 902 0 872.8 0C843.7 0 814.3 0 785.2 0C756 0 727 0 698 0C669 0 640 0 611 0C582 0 553 0 523.8 0C494.7 0 465.3 0 436.2 0C407 0 378 0 349 0C320 0 291 0 262 0C233 0 204 0 174.8 0C145.7 0 116.3 0 87.2 0C58 0 29 0 14.5 0L0 0Z" fill="#d2b6f8"></path><path d="M0 125L14.5 135C29 145 58 165 87.2 171.3C116.3 177.7 145.7 170.3 174.8 166.7C204 163 233 163 262 163.8C291 164.7 320 166.3 349 169C378 171.7 407 175.3 436.2 179C465.3 182.7 494.7 186.3 523.8 177.3C553 168.3 582 146.7 611 145.8C640 145 669 165 698 173.2C727 181.3 756 177.7 785.2 175.8C814.3 174 843.7 174 872.8 172.2C902 170.3 931 166.7 945.5 164.8L960 163L960 42L945.5 48.3C931 54.7 902 67.3 872.8 71C843.7 74.7 814.3 69.3 785.2 73.8C756 78.3 727 92.7 698 92.7C669 92.7 640 78.3 611 70.2C582 62 553 60 523.8 61.8C494.7 63.7 465.3 69.3 436.2 66.7C407 64 378 53 349 47.5C320 42 291 42 262 49.2C233 56.3 204 70.7 174.8 76.2C145.7 81.7 116.3 78.3 87.2 74.8C58 71.3 29 67.7 14.5 65.8L0 64Z" fill="#c8a5f6"></path><path d="M0 244L14.5 254.8C29 265.7 58 287.3 87.2 309C116.3 330.7 145.7 352.3 174.8 343.3C204 334.3 233 294.7 262 281.2C291 267.7 320 280.3 349 282.2C378 284 407 275 436.2 275.8C465.3 276.7 494.7 287.3 523.8 281C553 274.7 582 251.3 611 250.5C640 249.7 669 271.3 698 283.8C727 296.3 756 299.7 785.2 310.3C814.3 321 843.7 339 872.8 346.3C902 353.7 931 350.3 945.5 348.7L960 347L960 161L945.5 162.8C931 164.7 902 168.3 872.8 170.2C843.7 172 814.3 172 785.2 173.8C756 175.7 727 179.3 698 171.2C669 163 640 143 611 143.8C582 144.7 553 166.3 523.8 175.3C494.7 184.3 465.3 180.7 436.2 177C407 173.3 378 169.7 349 167C320 164.3 291 162.7 262 161.8C233 161 204 161 174.8 164.7C145.7 168.3 116.3 175.7 87.2 169.3C58 163 29 143 14.5 133L0 123Z" fill="#bd94f3"></path><path d="M0 460L14.5 463.7C29 467.3 58 474.7 87.2 478.3C116.3 482 145.7 482 174.8 482C204 482 233 482 262 482C291 482 320 482 349 478.3C378 474.7 407 467.3 436.2 468.2C465.3 469 494.7 478 523.8 478C553 478 582 469 611 471.7C640 474.3 669 488.7 698 493.2C727 497.7 756 492.3 785.2 489.7C814.3 487 843.7 487 872.8 482.5C902 478 931 469 945.5 464.5L960 460L960 345L945.5 346.7C931 348.3 902 351.7 872.8 344.3C843.7 337 814.3 319 785.2 308.3C756 297.7 727 294.3 698 281.8C669 269.3 640 247.7 611 248.5C582 249.3 553 272.7 523.8 279C494.7 285.3 465.3 274.7 436.2 273.8C407 273 378 282 349 280.2C320 278.3 291 265.7 262 279.2C233 292.7 204 332.3 174.8 341.3C145.7 350.3 116.3 328.7 87.2 307C58 285.3 29 263.7 14.5 252.8L0 242Z" fill="#ad80e8"></path><path d="M0 541L14.5 541C29 541 58 541 87.2 541C116.3 541 145.7 541 174.8 541C204 541 233 541 262 541C291 541 320 541 349 541C378 541 407 541 436.2 541C465.3 541 494.7 541 523.8 541C553 541 582 541 611 541C640 541 669 541 698 541C727 541 756 541 785.2 541C814.3 541 843.7 541 872.8 541C902 541 931 541 945.5 541L960 541L960 458L945.5 462.5C931 467 902 476 872.8 480.5C843.7 485 814.3 485 785.2 487.7C756 490.3 727 495.7 698 491.2C669 486.7 640 472.3 611 469.7C582 467 553 476 523.8 476C494.7 476 465.3 467 436.2 466.2C407 465.3 378 472.7 349 476.3C320 480 291 480 262 480C233 480 204 480 174.8 480C145.7 480 116.3 480 87.2 476.3C58 472.7 29 465.3 14.5 461.7L0 458Z" fill="#9c6cdd"></path></svg>