<?xml version="1.0" standalone="no"?>
<!DOCTYPE svg PUBLIC "-//W3C//DTD SVG 20010904//EN"
 "http://www.w3.org/TR/2001/REC-SVG-20010904/DTD/svg10.dtd">
<svg version="1.0" xmlns="http://www.w3.org/2000/svg"
 width="700.000000pt" height="700.000000pt" viewBox="0 0 700.000000 700.000000"
 preserveAspectRatio="xMidYMid meet">
<metadata>
Created by potrace 1.14, written by Peter Selinger 2001-2017
</metadata>
<g transform="translate(0.000000,700.000000) scale(0.100000,-0.100000)"
fill="#000000" stroke="none">
<path d="M1854 6540 c3 -47 6 -1232 6 -2635 l1 -2550 819 -493 820 -493 820
493 820 493 0 2565 c0 1411 3 2597 6 2635 l6 70 -20 -20 c-17 -17 -814 -1107
-836 -1143 -5 -8 51 -105 149 -262 87 -137 155 -256 152 -263 -3 -7 -33 -49
-68 -92 l-64 -80 -5 -1490 -5 -1490 -315 -191 -315 -190 -5 1585 -5 1586 -154
248 c-84 136 -157 247 -161 247 -5 0 -78 -113 -164 -252 l-156 -252 0 -1582 0
-1582 -317 192 -318 191 -5 1490 -5 1490 -64 80 c-35 43 -65 85 -68 92 -3 7
65 125 152 263 98 157 154 254 149 262 -22 36 -819 1126 -836 1143 l-20 20 6
-85z"/>
</g>
</svg>
